<svg width="110" height="109" viewBox="0 0 110 109" fill="none" xmlns="http://www.w3.org/2000/svg">
<path d="M55.1215 0H54.8745C24.978 0 0.742188 24.243 0.742188 54.1482V54.3954C0.742188 84.3006 24.978 108.544 54.8745 108.544H55.1215C85.018 108.544 109.254 84.3006 109.254 54.3954V54.1482C109.254 24.243 85.018 0 55.1215 0Z" fill="#716A63"/>
<path d="M71.7882 22.0829H38.2116C28.9355 22.0829 21.3892 29.6315 21.3892 38.9103V69.637C21.3892 78.9159 28.9355 86.4644 38.2116 86.4644H71.7882C81.0643 86.4644 88.6106 78.9159 88.6106 69.637V38.9103C88.6106 29.6315 81.0643 22.0829 71.7882 22.0829ZM27.3236 38.9103C27.3236 32.9057 32.2088 28.0191 38.2116 28.0191H71.7882C77.791 28.0191 82.6762 32.9057 82.6762 38.9103V69.637C82.6762 75.6416 77.791 80.5283 71.7882 80.5283H38.2116C32.2088 80.5283 27.3236 75.6416 27.3236 69.637V38.9103Z" fill="white" fill-opacity="0.8"/>
<path d="M55.0003 69.9222C63.6263 69.9222 70.6481 62.9022 70.6481 54.2698C70.6481 45.6374 63.6301 38.6174 55.0003 38.6174C46.3705 38.6174 39.3525 45.6374 39.3525 54.2698C39.3525 62.9022 46.3705 69.9222 55.0003 69.9222ZM55.0003 44.5574C60.3569 44.5574 64.7136 48.9154 64.7136 54.2736C64.7136 59.6317 60.3569 63.9898 55.0003 63.9898C49.6437 63.9898 45.287 59.6317 45.287 54.2736C45.287 48.9154 49.6437 44.5574 55.0003 44.5574Z" fill="white" fill-opacity="0.8"/>
<path d="M72.0959 41.1463C74.4188 41.1463 76.312 39.2563 76.312 36.929C76.312 34.6017 74.4226 32.7117 72.0959 32.7117C69.7693 32.7117 67.8799 34.6017 67.8799 36.929C67.8799 39.2563 69.7693 41.1463 72.0959 41.1463Z" fill="white" fill-opacity="0.8"/>
</svg>
