<svg width="105" height="138" viewBox="0 0 105 138" fill="none" xmlns="http://www.w3.org/2000/svg">
<mask id="path-1-inside-1_0_261" fill="white">
<path d="M0 0H105V68H0V0Z"/>
</mask>
<path d="M0 0V-1H-1V0H0ZM105 0H106V-1H105V0ZM0 1H105V-1H0V1ZM104 0V68H106V0H104ZM1 68V0H-1V68H1Z" fill="white" mask="url(#path-1-inside-1_0_261)"/>
<path d="M46.6986 53.32C43.7919 54.7867 40.8453 55.0267 37.8586 54.04C34.6853 53.0267 31.9519 50.8667 29.6586 47.56C28.4319 45.8 27.3786 43.76 26.4986 41.44L25.2186 38.04H15.7786L13.6586 43.08C13.5253 43.4267 13.4586 43.7067 13.4586 43.92C13.4586 44.1333 13.4986 44.3733 13.5786 44.64C13.6853 44.88 13.8853 45.1067 14.1786 45.32C14.4986 45.5067 14.8453 45.6 15.2186 45.6H15.5386V46H6.97859V45.6H7.33859C7.95193 45.6 8.55193 45.4267 9.13859 45.08C9.75193 44.7067 10.2586 44.16 10.6586 43.44L19.5786 23.08C18.5386 20.7333 17.4319 19.12 16.2586 18.24C15.2719 17.4933 14.3253 17.12 13.4186 17.12C12.5386 17.12 11.7119 17.2533 10.9386 17.52L10.8586 17.12C12.7786 16.1333 14.6186 15.64 16.3786 15.64C18.5653 15.64 20.5253 16.4933 22.2586 18.2C23.9653 19.88 25.4719 22.3067 26.7786 25.48L32.5786 39.8C34.7653 45.2133 37.0053 48.9333 39.2986 50.96C40.2319 51.7867 41.1919 52.36 42.1786 52.68C43.1653 53 43.9919 53.16 44.6586 53.16C45.3519 53.16 46.0186 53.08 46.6586 52.92L46.6986 53.32ZM16.4586 36.32H24.6186L21.8186 28.92C21.6853 28.5467 21.4986 28.04 21.2586 27.4C21.0186 26.7333 20.8586 26.2667 20.7786 26L16.4586 36.32ZM81.3492 52.8C79.2692 53.84 77.0559 54.36 74.7092 54.36C72.6292 54.36 70.7359 54.04 69.0292 53.4C65.3492 52.04 62.2159 49.3867 59.6292 45.44C58.9626 44.48 57.7226 42.64 55.9092 39.92C54.0959 37.2 52.9226 35.4667 52.3892 34.72C51.4559 33.2533 50.7092 32.4533 50.1492 32.32V31.92C50.1759 31.92 50.2026 31.92 50.2292 31.92C50.2826 31.92 50.3359 31.92 50.3892 31.92C50.4426 31.92 50.4959 31.92 50.5492 31.92C50.6026 31.92 50.6692 31.92 50.7492 31.92C50.8292 31.92 50.8959 31.92 50.9492 31.92C52.3092 31.92 53.5626 31.6133 54.7092 31C56.4426 30.04 57.3092 28.2667 57.3092 25.68C57.3092 23.7867 56.7759 22.3333 55.7092 21.32C54.6426 20.28 53.3626 19.76 51.8692 19.76H48.8292V43.08C48.8292 43.7733 49.0826 44.3733 49.5892 44.88C50.0959 45.36 50.6959 45.6 51.3892 45.6H51.9092V46H39.7492V45.6H40.2692C40.9359 45.6 41.5226 45.36 42.0292 44.88C42.5359 44.4 42.8026 43.8133 42.8292 43.12V20.92C42.8026 20.2267 42.5359 19.64 42.0292 19.16C41.5492 18.6533 40.9626 18.4 40.2692 18.4H39.7492V18H53.4692C56.9092 18 59.5759 18.7867 61.4692 20.36C62.9626 21.5867 63.7092 23.32 63.7092 25.56C63.7092 27.8 62.9759 29.6267 61.5092 31.04C60.0692 32.4267 58.4159 33.12 56.5492 33.12C56.3892 33.12 56.2159 33.1067 56.0292 33.08C57.1226 33.6667 58.0292 34.32 58.7492 35.04C59.4959 35.76 60.1359 36.44 60.6692 37.08C61.2292 37.72 61.6959 38.2933 62.0692 38.8C62.4692 39.28 62.9892 39.9333 63.6292 40.76C64.2692 41.56 64.9359 42.4 65.6292 43.28C66.3226 44.16 67.0826 45.0667 67.9092 46C68.7626 46.9067 69.6959 47.7733 70.7092 48.6C71.7492 49.4267 72.8026 50.1067 73.8692 50.64C76.1359 51.7867 78.6292 52.3733 81.3492 52.4V52.8ZM68.0117 27.32C66.7051 26.0667 66.0517 24.72 66.0517 23.28C66.0517 22.16 66.4117 21.1867 67.1317 20.36C68.4917 18.76 70.3984 17.96 72.8517 17.96H91.6917C92.8651 17.9333 93.8917 17.84 94.7717 17.68C95.6517 17.4933 96.2117 17.3467 96.4517 17.24V24.2H96.0517V23.72C96.0517 22.52 95.6917 21.5467 94.9717 20.8C94.2517 20.0533 93.2784 19.6667 92.0517 19.64H86.6517V43.12C86.7051 44.08 87.1451 44.8 87.9717 45.28C88.3451 45.4933 88.7584 45.6 89.2117 45.6H89.7317V46H77.5717V45.6H78.0917C78.7851 45.6 79.3717 45.36 79.8517 44.88C80.3584 44.4 80.6251 43.8267 80.6517 43.16V19.64H72.8517C71.7584 19.64 70.7984 19.84 69.9717 20.24C68.2917 21.04 67.4517 22.2933 67.4517 24C67.4517 25.0133 67.7717 26.0533 68.4117 27.12L68.0117 27.32Z" fill="white"/>
<rect x="0.5" y="70.5" width="104" height="67" stroke="white"/>
<path d="M54.8953 123.92C54.2286 123.92 53.5753 123.867 52.9353 123.76C50.3486 123.36 48.1486 122.373 46.3353 120.8C44.522 119.253 43.2153 117.32 42.4153 115C39.9086 116.04 37.202 116.56 34.2953 116.56C29.4953 116.56 25.562 115.2 22.4953 112.48C19.4286 109.76 17.8953 106.267 17.8953 102C17.8953 99.1467 18.5886 96.6133 19.9753 94.4C21.3886 92.1867 23.362 90.48 25.8953 89.28C28.4286 88.0533 31.322 87.44 34.5753 87.44C36.7086 87.44 38.7753 87.6533 40.7753 88.08C42.7753 88.48 44.3886 88.9867 45.6153 89.6L45.6953 96.48H45.3753C44.7353 94.0533 43.4953 92.2267 41.6553 91C39.842 89.7467 37.6553 89.12 35.0953 89.12C31.9486 89.12 29.3753 90.3333 27.3753 92.76C25.402 95.16 24.4153 98.2667 24.4153 102.08C24.4153 105.867 25.3886 108.947 27.3353 111.32C29.282 113.693 31.7886 114.88 34.8553 114.88C36.5086 114.88 37.9353 114.52 39.1353 113.8C40.362 113.08 41.1886 112.12 41.6153 110.92V104.84C41.6153 104.253 41.442 103.8 41.0953 103.48C40.7486 103.16 40.2553 103 39.6153 103H38.9753V102.6H50.2153V103H49.6153C48.9486 103 48.442 103.16 48.0953 103.48C47.7486 103.8 47.5886 104.24 47.6153 104.8V111.16C47.642 112.92 47.9753 114.56 48.6153 116.08C50.0286 119.333 52.3753 121.36 55.6553 122.16C56.5353 122.373 57.442 122.48 58.3753 122.48C59.3353 122.48 60.3086 122.373 61.2953 122.16L61.3753 122.56C59.082 123.467 56.922 123.92 54.8953 123.92ZM70.7484 87.44C75.6818 87.44 79.6018 88.7467 82.5084 91.36C85.4151 93.9733 86.8684 97.52 86.8684 102C86.8684 106.48 85.4151 110.027 82.5084 112.64C79.6018 115.253 75.6818 116.56 70.7484 116.56C65.8151 116.56 61.8951 115.253 58.9884 112.64C56.0818 110.027 54.6284 106.48 54.6284 102C54.6284 99.04 55.2818 96.4667 56.5884 94.28C57.9218 92.0667 59.8018 90.3733 62.2284 89.2C64.6551 88.0267 67.4951 87.44 70.7484 87.44ZM63.7484 111.44C65.4818 113.733 67.8151 114.88 70.7484 114.88C73.6818 114.88 76.0018 113.733 77.7084 111.44C79.4418 109.12 80.3084 105.973 80.3084 102C80.3084 99.3867 79.9218 97.1067 79.1484 95.16C78.3751 93.2133 77.2684 91.72 75.8284 90.68C74.3884 89.64 72.6951 89.12 70.7484 89.12C67.8151 89.12 65.4818 90.28 63.7484 92.6C62.0418 94.8933 61.1884 98.0267 61.1884 102C61.1884 105.973 62.0418 109.12 63.7484 111.44Z" fill="white"/>
</svg>
