<svg width="34" height="34" viewBox="0 0 34 34" fill="none" xmlns="http://www.w3.org/2000/svg">
<path d="M10.6667 27C8.83341 27 7.35008 28.5 7.35008 30.3333C7.35008 32.1666 8.83341 33.6666 10.6667 33.6666C12.5001 33.6666 14.0001 32.1666 14.0001 30.3333C14.0001 28.5 12.5001 27 10.6667 27ZM0.666748 0.333313V3.66665H4.00008L10.0001 16.3166L7.75008 20.4C7.48341 20.8666 7.33341 21.4166 7.33341 22C7.33341 23.8333 8.83341 25.3333 10.6667 25.3333H30.6667V22H11.3667C11.1334 22 10.9501 21.8166 10.9501 21.5833L11.0001 21.3833L12.5001 18.6666H24.9167C26.1667 18.6666 27.2667 17.9833 27.8334 16.95L33.8001 6.13331C33.9334 5.89998 34.0001 5.61665 34.0001 5.33331C34.0001 4.41665 33.2501 3.66665 32.3334 3.66665H7.68341L6.11675 0.333313H0.666748ZM27.3334 27C25.5001 27 24.0167 28.5 24.0167 30.3333C24.0167 32.1666 25.5001 33.6666 27.3334 33.6666C29.1667 33.6666 30.6667 32.1666 30.6667 30.3333C30.6667 28.5 29.1667 27 27.3334 27Z" fill="#D1D0D0"/>
</svg>
