<svg width="110" height="110" viewBox="0 0 110 110" fill="none" xmlns="http://www.w3.org/2000/svg">
<path d="M109.25 54.8173C109.25 82.2279 88.9376 104.889 62.55 108.566C60.0827 108.908 57.5584 109.087 54.9961 109.087C52.0384 109.087 49.1339 108.851 46.3054 108.395C20.4729 104.235 0.742188 81.8286 0.742188 54.8173C0.742188 24.8435 25.035 0.543579 54.9999 0.543579C84.9648 0.543579 109.258 24.8435 109.258 54.8173H109.25Z" fill="#716A63"/>
<path d="M22.7465 24.4823L47.7692 57.947L22.5906 85.1561H28.2589L50.3049 61.3353L68.1158 85.1561H87.4018L60.9724 49.809L84.4098 24.4823H78.7415L58.4405 46.4207L42.0362 24.4823H22.7502H22.7465ZM31.0797 28.6578H39.9377L79.0609 80.9806H70.2029L31.0797 28.6578Z" fill="white" fill-opacity="0.8"/>
</svg>
